<svg width="995" height="61" viewBox="0 0 995 61" fill="none" xmlns="http://www.w3.org/2000/svg">
<path d="M102.85 1.99162C109.523 1.99162 114.934 7.40192 114.934 14.0759V48.1199C114.934 54.7938 109.523 60.2041 102.85 60.2041C96.1756 60.2041 90.7653 54.7938 90.7653 48.1199V14.0758C90.7653 7.40191 96.1756 1.99162 102.85 1.99162ZM6.04452 60.2041C-0.146856 60.2041 -2.02091 51.7969 3.58431 49.1674L23.7375 39.7129C31.9832 35.8446 31.8777 24.0801 23.5639 20.3603L3.53319 11.3981C-2.33413 8.77293 -0.461006 0 5.96683 0C6.84106 0 7.70459 0.192364 8.49616 0.563447L62.9662 26.0987C65.3573 27.2196 67.9658 27.8007 70.6066 27.8007H135.831C138.247 27.8007 140.638 27.3144 142.862 26.3709L199.291 2.42924C199.971 2.14045 200.703 1.99162 201.443 1.99162C207.489 1.99162 209.121 10.321 203.522 12.6029L182.173 21.3039C174.073 24.605 173.788 35.9696 181.712 39.673L201.766 49.0457C207.439 51.6972 205.549 60.2041 199.287 60.2041C198.416 60.2041 197.556 60.0098 196.77 59.6352L147.453 36.1444C145.035 34.9927 142.39 34.3951 139.712 34.3951H65.9608C63.2995 34.3951 60.6712 34.9852 58.2654 36.123L8.52098 59.6481C7.74675 60.0142 6.90097 60.2041 6.04452 60.2041Z" fill="#3F3F3F"/>
<path d="M262.459 13.881C262.459 7.31466 267.782 1.99162 274.348 1.99162C280.914 1.99162 286.237 7.31466 286.237 13.881V46.1889C286.237 47.0849 286.964 47.8112 287.86 47.8112C288.075 47.8112 288.289 47.7682 288.488 47.6848L393.992 3.39472C396.198 2.46862 398.567 1.99162 400.959 1.99162H402.723C412.664 1.99162 420.723 10.0505 420.723 19.9916V48.1199C420.723 54.7938 415.313 60.2041 408.639 60.2041C401.965 60.2041 396.555 54.7938 396.555 48.1199V16.1203C396.555 15.2244 395.828 14.4982 394.933 14.4982C394.717 14.4982 394.503 14.5413 394.304 14.6249L289.193 58.7983C286.985 59.7262 284.614 60.2041 282.219 60.2041H280.459C270.518 60.2041 262.459 52.1453 262.459 42.2041V13.881Z" fill="#3F3F3F"/>
<path d="M492.23 60.2041C482.289 60.2041 474.23 52.1453 474.23 42.2041V19.9916C474.23 10.0505 482.289 1.99162 492.23 1.99162H544.006C557.91 1.99162 569.377 2.69275 578.408 4.09501C587.438 5.47831 594.162 7.34482 598.58 9.69455C602.998 12.0253 605.207 14.6119 605.207 17.4543C605.207 19.9556 603.68 22.0211 600.627 23.6508C597.638 25.2804 593.675 26.569 588.737 27.5164C583.943 28.4487 578.74 29.1425 573.128 29.5977C572.973 29.6103 572.853 29.7398 572.853 29.8954C572.853 30.0581 572.983 30.1907 573.145 30.1941C579.156 30.3221 585.198 30.9455 591.271 32.0643C597.443 33.2013 602.608 34.8309 606.766 36.9532C610.924 39.0756 613.003 41.6716 613.003 44.7414C613.003 47.6596 610.73 50.2841 606.182 52.6149C601.634 54.9457 594.455 56.7932 584.645 58.1576C574.834 59.522 562.068 60.2041 546.345 60.2041H492.23ZM498.398 43.8319C498.398 49.4204 502.929 53.9508 508.517 53.9508H546.345C562.133 53.9508 573.34 53.0602 579.967 51.279C586.659 49.4788 590.004 47.2996 590.004 44.7414C590.004 42.7707 588.283 40.9516 584.839 39.284C581.396 37.5975 576.491 36.2521 570.124 35.2478C563.757 34.2245 556.221 33.7129 547.515 33.7129H508.517C502.929 33.7129 498.398 38.2433 498.398 43.8319ZM498.398 17.9091C498.398 23.2465 502.725 27.5733 508.062 27.5733H543.227C550.503 27.5733 557.065 27.1564 562.912 26.3226C568.825 25.4889 573.502 24.314 576.946 22.798C580.454 21.2821 582.208 19.5009 582.208 17.4543C582.208 14.8962 579.155 12.7265 573.048 10.9452C566.941 9.14502 557.26 8.24492 544.006 8.24492H508.062C502.725 8.24492 498.398 12.5717 498.398 17.9091Z" fill="#3F3F3F"/>
<path d="M826.261 31.0979C826.261 37.2375 822.46 42.5433 814.859 47.0154C807.257 51.4874 796.83 54.9362 783.576 57.3617C770.323 59.7872 755.185 61 738.163 61C721.141 61 706.003 59.7872 692.75 57.3617C679.496 54.9362 669.068 51.4874 661.467 47.0154C653.866 42.5433 650.065 37.2375 650.065 31.0979C650.065 24.9583 653.866 19.6524 661.467 15.1804C669.068 10.7083 679.496 7.25955 692.75 4.83403C706.003 2.40851 721.141 1.19575 738.163 1.19575C755.185 1.19575 770.323 2.40851 783.576 4.83403C796.83 7.25955 807.257 10.7083 814.859 15.1804C822.46 19.6524 826.261 24.9583 826.261 31.0979ZM802.872 31.0979C802.872 26.0573 799.981 21.8032 794.199 18.3355C788.481 14.8677 780.718 12.2432 770.907 10.462C761.162 8.68076 750.247 7.79014 738.163 7.79014C726.079 7.79014 715.131 8.68076 705.321 10.462C695.576 12.2432 687.812 14.8677 682.03 18.3355C676.312 21.8032 673.454 26.0573 673.454 31.0979C673.454 36.1384 676.312 40.3925 682.03 43.8603C687.812 47.328 695.576 49.9525 705.321 51.7338C715.131 53.515 726.079 54.4056 738.163 54.4056C750.247 54.4056 761.162 53.515 770.907 51.7338C780.718 49.9525 788.481 47.328 794.199 43.8603C799.981 40.3925 802.872 36.1384 802.872 31.0979Z" fill="#3F3F3F"/>
<path d="M890.044 60.2041C880.103 60.2041 872.044 52.1453 872.044 42.2041V20.0546C872.044 10.0889 880.142 2.01992 890.107 2.05474L990.944 2.4071C992.666 2.41312 994.058 3.81058 994.058 5.53236C994.058 7.26372 992.651 8.66515 990.919 8.6576L906.069 8.28787C900.633 8.26418 896.213 12.6646 896.213 18.1011C896.213 23.5208 900.606 27.9144 906.026 27.9144H983.133C984.86 27.9144 986.26 29.3142 986.26 31.041C986.26 32.7678 984.86 34.1677 983.133 34.1677H906.104C900.641 34.1677 896.213 38.5963 896.213 44.0593C896.213 49.5222 900.641 53.9508 906.104 53.9508H990.929C992.656 53.9508 994.056 55.3507 994.056 57.0775C994.056 58.8043 992.656 60.2041 990.929 60.2041H890.044Z" fill="#3F3F3F"/>
</svg>
